<svg xmlns="http://www.w3.org/2000/svg" xmlns:xlink="http://www.w3.org/1999/xlink" id="Layer_1" data-name="Layer 1" viewBox="0 0 900 350"><defs><style>.cls-1{fill:none;clip-rule:evenodd;}.cls-2{fill:#cfcfcd;}.cls-10,.cls-11,.cls-12,.cls-13,.cls-14,.cls-15,.cls-16,.cls-17,.cls-18,.cls-19,.cls-2,.cls-20,.cls-21,.cls-22,.cls-23,.cls-24,.cls-26,.cls-27,.cls-28,.cls-29,.cls-3,.cls-30,.cls-31,.cls-32,.cls-33,.cls-34,.cls-4,.cls-5,.cls-6,.cls-7,.cls-8,.cls-9{fill-rule:evenodd;}.cls-3,.cls-36{fill:#8f8f8f;}.cls-4,.cls-7{opacity:0.1;}.cls-5{fill:#99c26c;}.cls-6{fill:#6f9d52;}.cls-32,.cls-7{fill:#2b2b2b;}.cls-35,.cls-8{fill:#474748;}.cls-38,.cls-9{fill:#6f7273;}.cls-10{fill:#4f5353;}.cls-11{fill:#74c7a5;}.cls-12{fill:#3f8f6f;}.cls-13{fill:#54b08b;}.cls-14{fill:#35785e;}.cls-15{fill:#c4c4c4;}.cls-16{fill:#b8c744;}.cls-17{fill:#d9e256;}.cls-18{fill:#e6e97b;}.cls-19{fill:#5a753d;}.cls-20{fill:#44622d;}.cls-21{fill:#a0cf7f;}.cls-22{fill:#c0db8f;}.cls-23,.cls-37{fill:#ececeb;}.cls-24{fill:#9ca0a1;}.cls-25{clip-path:url(#clip-path);}.cls-26{fill:#a3a3a3;}.cls-27{fill:#8b6651;}.cls-28{fill:#dddddc;}.cls-29{fill:#c2987a;}.cls-30{fill:#fff;}.cls-31{fill:#738d57;}.cls-33{fill:#e9cbb7;}.cls-34{fill:#dfbda5;}</style><clipPath id="clip-path"><polygon class="cls-1" points="16.59 149.86 14.6 87.15 25.55 33.4 129.07 3.54 171.75 5 235.57 20.46 286.34 66.24 257.47 203.61 170.88 226.5 68.35 214.56 16.59 149.86"/></clipPath></defs><title>diplomats_Mediator_INFP_career_path</title><polygon class="cls-4" points="283 165.5 332 154.5 364.5 244.5 295.25 215.5 283 165.5"/><polygon class="cls-5" points="302.5 137 391.5 124 468.25 209 340 220.5 302.5 137"/><polygon class="cls-6" points="302.5 137 290 150.5 327.5 224.5 340 220.5 302.5 137"/><polygon class="cls-14" points="548.5 242.5 544 292 512.5 277.5 500 255.5 564.2 220.2 548.5 242.5"/><polygon class="cls-12" points="355 347 390.5 337 406.5 289.5 536.5 258 544 292 572.5 282 567.5 217 416.22 211.37 348.05 245.22 355 347"/><polygon class="cls-12" points="288.14 283.49 288.64 299.6 341 290 309.99 232.09 296 248.5 288.14 283.49"/><polygon class="cls-14" points="360.5 231 278 215.5 273.5 289 288.6 299.6 301.5 276.5 325 287 329.39 331.12 355 347 354.48 248.13 360.5 231"/><polygon class="cls-13" points="278 215.5 496.5 190.5 567.5 217 354.48 248.13 278 215.5"/><polygon class="cls-20" points="543.74 191.24 551.26 186.44 538.52 179.88 543.74 191.24"/><polygon class="cls-7" points="543.94 208.28 550.87 215.46 521.75 221.24 503.24 223.65 485.77 215.48 480.74 192.54 494.02 191.77 543.94 208.28"/><polygon class="cls-15" points="502.44 167.63 493.07 168.45 492.81 205.31 497.46 208.85 501.07 185.11 502.44 167.63"/><polygon class="cls-23" points="528.57 171.64 532.51 165.07 526.6 162.46 493.07 168.45 498.22 171.59 528.57 171.64"/><polygon class="cls-24" points="498.22 171.59 497.46 208.85 531.47 201.93 532.51 165.07 498.22 171.59"/><polygon class="cls-15" points="508.91 172.76 499.54 173.59 499.27 210.45 503.92 213.99 507.53 190.25 508.91 172.76"/><polygon class="cls-23" points="535.03 176.78 538.97 170.21 533.07 167.6 499.54 173.59 504.68 176.72 535.03 176.78"/><polygon class="cls-24" points="504.68 176.72 503.92 213.99 537.94 207.07 538.97 170.21 504.68 176.72"/><polygon class="cls-15" points="515.94 177.14 506.57 177.96 506.3 214.82 510.96 218.36 514.57 194.62 515.94 177.14"/><polygon class="cls-23" points="542.06 181.15 546 174.58 540.1 171.97 506.57 177.96 511.72 181.1 542.06 181.15"/><polygon class="cls-24" points="511.72 181.1 510.96 218.36 544.97 211.44 546 174.58 511.72 181.1"/><polygon class="cls-17" points="521.34 221.32 550.87 215.46 551.26 186.44 520.84 191.57 521.34 221.32"/><path class="cls-12" d="M329.9,210.3l26.53-5.2L399,229.69l8.89-1.38,1.64,3.27-15.4,4.31L389.67,231l8.81-1.25c-3.9-.81-22.53-6.44-22.53-6.44l-44-4.06Z"/><polyline class="cls-31" points="429.76 175.99 401.68 179.55 399.98 155.55 411.9 149.3 418.43 159.99 432.13 172.55"/><polygon class="cls-19" points="358.68 200.09 359.52 171.09 350.95 165.99 377.56 162.57 394.88 173.06 401.68 179.55 395.38 195.18 358.68 200.09"/><polygon class="cls-31" points="400.25 201.5 363 206.75 358.68 200.09 401.68 179.55 403.85 191.73 400.25 201.5"/><polygon class="cls-19" points="434.1 173.78 441.5 196.75 400.25 201.5 401.68 179.55 434.1 173.78"/><polygon class="cls-5" points="388.49 167.32 383.51 172.06 401.68 179.55 400.94 163.82 388.49 167.32"/><polygon class="cls-10" points="396.72 215.05 403.15 215.57 411.48 223.66 409.51 231.57 401.26 232.79 394.32 233.26 379.45 222.46 396.72 215.05"/><polygon class="cls-3" points="399.02 215.23 403.15 215.57 411.48 223.66 410.32 228.36 397.26 220.16 399.02 215.23"/><polygon class="cls-9" points="410.75 226.58 409.51 231.57 399.12 225.08 400.09 218.1 410.75 226.58"/><polygon class="cls-29" points="390.13 211.9 394.16 205.02 403.15 215.57 399.12 225.08 395.3 224.67 390.13 211.9"/><polygon class="cls-34" points="375.23 214.13 381.9 210.09 394.16 205.02 395.3 224.67 379.45 222.46 375.23 214.13"/><polygon class="cls-5" points="343.64 201.23 339.69 213.32 379.45 222.46 381.9 210.09 358.68 200.09 343.64 201.23"/><polygon class="cls-31" points="360.28 172.2 358.68 200.09 339.69 213.32 342.96 161.41 360.28 172.2"/><polygon class="cls-13" points="353.25 163.51 360.28 172.2 342.01 176.53 342.96 161.41 353.25 163.51"/><path class="cls-11" d="M357.37,146.34l-3.65,3.58L343,161.41l17.32,10.79,35,.31,14.39-21.91-.54-10.84s-14.6-.51-13.93-.14S357.37,146.34,357.37,146.34Z"/><polygon class="cls-5" points="409.53 141.16 417.06 140.39 446.19 174.63 437.31 182.29 414.34 161.25 409.62 150.6 409.53 141.16"/><polygon class="cls-34" points="398.57 135.03 389.47 151.49 368.67 150.84 350.27 114.61 356.78 108.51 361.77 94.56 397.19 77.63 401.64 82.19 417.13 127.61 398.57 135.03"/><polygon class="cls-29" points="412.64 133.91 417.13 127.61 409.61 123.49 399.67 126.54 403.89 132.91 412.64 133.91"/><polygon class="cls-29" points="352.35 118.7 369.32 151.49 389.46 157.27 398.57 135.03 381.98 141.06 365.39 98.46 361.77 94.56 356.51 108.04 352.35 118.7"/><polygon class="cls-2" points="361.77 94.56 407.97 72.98 395.63 57.82 385.93 55.83 338.25 78 332.77 117.64 352.35 118.7 356.51 108.04 361.77 94.56"/><polygon class="cls-32" points="403.65 75 416.89 90.28 411.67 111.59 401.64 82.19 397.45 77.89 398.46 73.67 403.65 75"/><polygon class="cls-27" points="358.75 131.29 361.98 127.21 361.94 137.59 358.75 131.29"/><polygon class="cls-27" points="391.61 152.02 398.57 135.03 377.46 142.72 391.61 152.02"/><polygon class="cls-3" points="401.64 82.19 402.46 79.24 403.65 75 416.89 90.28 401.64 82.19"/><polygon class="cls-10" points="409.57 86.39 409.39 104.9 411.67 111.59 414.31 108.17 414.55 99.85 416.89 90.28 409.57 86.39"/><polygon class="cls-29" points="358.75 131.29 364.65 123.93 356.56 107.91 352.35 118.7 358.75 131.29"/><polygon class="cls-27" points="354.87 117.47 357.02 112.67 360.45 120.03 354.87 117.47"/><polygon class="cls-27" points="373.59 89.03 399.42 79.91 397.45 77.89 373.59 89.03"/><polygon class="cls-32" points="332.77 117.64 353.72 149.92 369.06 150.98 352.35 118.7 345.66 108.87 332.77 117.64"/><polygon class="cls-9" points="332.77 117.64 348.71 126.02 358.75 131.29 353.72 149.92 332.77 117.64"/><polygon class="cls-8" points="372.06 125.33 359.56 100.2 361.77 94.56 361.27 80.69 338.25 78 332.77 117.64 352.35 118.7 356.51 108.04 366.84 128.2 372.06 125.33"/><polygon class="cls-8" points="353.72 149.92 339.4 143.13 340.35 129.32 353.72 149.92"/><polygon class="cls-3" points="414.55 99.85 417.45 108.78 414.18 118.95 411.67 111.59 413.33 104.8 414.55 99.85"/><polygon class="cls-3" points="395.63 57.82 376.36 71.88 338.25 78 385.93 55.83 395.63 57.82"/><polygon class="cls-9" points="395.63 57.82 385.63 77.86 361.77 94.56 338.25 78 395.63 57.82"/><polygon class="cls-3" points="395.63 57.82 382.99 71.53 361.77 94.56 407.97 72.98 395.63 57.82"/><polygon class="cls-34" points="417.13 127.61 417.06 140.39 409.62 150.6 403.89 132.91 417.13 127.61"/><polygon class="cls-17" points="400.94 163.82 389.46 157.27 384.38 172.54 397.18 173.74 400.94 163.82"/><polygon class="cls-16" points="405.23 182.67 403.8 185.79 405.47 187.92 407.18 185.29 405.23 182.67"/><polygon class="cls-27" points="390.47 122.85 404.51 113.69 405.24 115.89 391.19 124.93 390.47 122.85"/><polygon class="cls-27" points="392.64 114.28 398.67 111.13 397.71 115.03 392.64 114.28"/><polygon class="cls-29" points="373.22 101.34 376.76 95.92 384.59 95.83 389.46 93.95 393.96 87.97 396.82 88.44 396.2 95.07 394.7 104.28 398.67 111.13 392.64 114.28 389.39 106.94 380.58 102.47 373.22 101.34"/><circle class="cls-35" cx="380.29" cy="102.74" r="2.56"/><circle class="cls-35" cx="396.07" cy="95.02" r="2.56"/><polygon class="cls-8" points="373.22 101.34 369.98 100.02 375.59 93.76 381.42 93.69 381.27 95.83 376.76 95.92 373.22 101.34"/><polygon class="cls-8" points="389.46 93.95 388.23 90.85 392.55 85.82 397.86 87.3 396.82 88.44 393.96 87.97 389.46 93.95"/><polygon class="cls-33" points="392.64 114.28 384.59 95.83 389.46 93.95 398.67 111.13 392.64 114.28"/><path class="cls-7" d="M386.07,236.13l.21,1.61L347,244.53l-23.09-12s17.9-5.77,18.08-6.24S386.07,236.13,386.07,236.13Z"/><polygon class="cls-16" points="385.64 227.26 346.93 235.83 346.97 244.53 386.07 236.13 385.64 227.26"/><polygon class="cls-15" points="346.93 235.83 346.77 228.81 334.67 224.38 334.59 230.99 346.97 244.53 346.93 235.83"/><polygon class="cls-18" points="385.64 227.26 370.6 218.34 334.67 224.38 346.93 235.83 385.64 227.26"/><polygon class="cls-16" points="383.26 217.86 349.01 226 348.86 234.18 383.38 225.99 383.26 217.86"/><polygon class="cls-15" points="349.01 226 348.05 220.19 336.5 215.54 336.14 222.61 348.86 234.18 349.01 226"/><polygon class="cls-18" points="383.26 217.86 369.32 210.03 336.5 215.54 349.01 226 383.26 217.86"/><path class="cls-7" d="M507.21,225.73l-40.71,6.1-22.72-13.15-29.07,3L400,211.78,394.16,205l-2.57,1.11-4.09-2.76,3.6-.57,94.08,4.78c.06.63,22,18.15,22,18.15Z"/><polygon class="cls-9" points="418.65 207.57 413.18 215.85 414.83 218.95 493.84 204.19 459.29 205.52 418.65 207.57"/><polygon class="cls-10" points="403.35 201.95 390.91 200.07 391.1 202.8 414.83 218.95 415.3 215.7 403.35 201.95"/><polygon class="cls-9" points="461.09 223.87 468.54 230.93 507.21 225.74 507.25 220.8 461.09 223.87"/><polygon class="cls-10" points="456.72 217.44 448.51 217.07 448.48 218.99 468.54 230.93 468.98 226.8 456.72 217.44"/><path class="cls-26" d="M415.3,215.7c.75.11,78.49-12.63,78.49-12.63l-14.38-15-88.5,12Z"/><path class="cls-28" d="M399.27,201.45l3.84,2.56,10.41-1.62-3.64-2.4-10.61,1.46Zm15.8.7-3.56-2.39,9.19-1.26,3.41,2.25-9,1.4Zm10.59-1.64,8.33-1.3-3.19-2.1-8.46,1.17,3.32,2.23Zm9.87-1.54-3.09-2.08,8.22-1.14,1.17.78c-.75.21-6,2.31-6.3,2.44Zm7.88-2.69,8.49-1.36-.9-.59-8.71,1.2,1.12.75Zm10.06-1.6c2.67-.43,5.56-.88,8.39-1.31l-.66-.44-8.57,1.18.84.57Zm10-1.56c3-.45,5.85-.87,8.23-1.21l-.53-.35-8.32,1.15.62.41Zm9.79-1.42,1.29-.17-.73-.33-1.08.15.52.35Zm-68.84,13.17,10.27-1.73,4.67,3.09-10.47,1.62-4.47-3Zm16.4,1.13,9.12-1.42-4.83-3.19-8.92,1.5,4.63,3.11Zm10.59-1.65-4.79-3.22,8.22-1.38,5,3.28-8.4,1.32Zm9.86-1.55,8.16-1.28-5.1-3.37-8,1.34,4.92,3.31Zm9.62-1.51-5.05-3.39,8.44-1.42,5.22,3.44-8.61,1.37Zm10.08-1.6-5.17-3.47,8.31-1.39,5.32,3.51-8.46,1.35Zm9.91-1.59-5.26-3.53,8.06-1.35,5.38,3.55-8.18,1.33Zm9.58-1.56,3.36-.57-.08-.25L477,192.66h0l-1.86.31,5.31,3.57Zm-70.22,12.21,5.73,3.84,10.48-1.68-5.9-3.9c-4.35.71-7.93,1.32-10.31,1.74Zm17.56,1.94-5.83-3.92,9.05-1.48,5.95,3.93-9.17,1.47ZM438.29,209l8.47-1.36-6-3.94-8.37,1.35,5.87,3.95Zm9.83-1.58-5.89-3.95,8.13-1.31,6,3.94-8.22,1.32Zm9.58-1.54,8.69-1.39-6-3.94-8.61,1.37,5.89,4Zm10.05-1.61,8.56-1.37-6-3.94-8.47,1.35,5.88,4Zm9.92-1.59,8-1.28-.11-.34L480,197.42l-8.23,1.31,5.88,4Zm7.37-3.05-3.62-2.43,2.64-.42Z"/><polygon class="cls-24" points="435.21 167.18 418.63 166.03 414.34 161.25 492.76 149.47 502.16 152.02 435.21 167.18"/><polygon class="cls-3" points="448.33 217.1 468.98 226.8 507.25 220.8 485.89 210.97 448.33 217.1"/><polygon class="cls-26" points="473.27 205.54 472.62 206.33 467.02 217.44 469.64 218.89 483.32 207.38 473.27 205.54"/><polygon class="cls-10" points="478.36 200.77 475.25 206.56 469.64 218.89 486.75 216.28 491.71 204.48 478.36 200.77"/><polygon class="cls-10" points="427.74 168.25 420.59 164.03 414.34 161.25 423.78 204.99 427.62 206.88 427.74 168.25"/><polygon class="cls-9" points="420.59 164.03 427.62 206.88 501.74 194.66 502.16 152.02 420.59 164.03"/><path class="cls-10" d="M471.56,186.74l-8.23-2.46.08,4.75,9.21,17.3,2.63.23s2.43-6.11,2.15-7S471.56,186.74,471.56,186.74Z"/><polygon class="cls-3" points="477.53 181.75 491.71 204.48 475.25 206.56 463.33 184.28 477.53 181.75"/></svg>