<svg xmlns="http://www.w3.org/2000/svg" fill="none" width="299" height="291.17"><defs><clipPath id="a"><rect width="299" height="291.17" rx="0"/></clipPath></defs><g clip-path="url(#a)"><path d="m9.5 109.67 49-11 32.5 90-69.25-29-12.25-50z" fill="#000" style="opacity:.10000000149011612"/><path d="m29 81.17 89-13 76.75 85-128.25 11.5L29 81.17z" fill="#99C26C"/><path d="m29 81.17-12.5 13.5 37.5 74 12.5-4L29 81.17z" fill="#6F9D52"/><path d="m275 186.67-4.5 49.5-31.5-14.5-12.5-22 64.2-35.3-15.7 22.3z" fill="#35785E"/><path d="m81.5 291.17 35.5-10 16-47.5 130-31.5 7.5 34 28.5-10-5-65-151.28-5.63-68.17 33.85 6.95 101.78zM14.64 227.66l.36 15.51 52.5-9-31.01-57.91-13.99 16.41-7.86 34.99z" fill="#3F8F6F"/><path d="m87 175.17-82.5-15.5-4.5 73.5 15 10 13-22.5 23.5 10.5 4.39 44.12 25.61 15.88-.52-98.87L87 175.17z" fill="#35785E"/><path d="m4.5 159.67 218.5-25 71 26.5L80.98 192.3 4.5 159.67z" fill="#54B08B"/><path d="m270.24 135.41 7.52-4.8-12.74-6.56 5.22 11.36z" fill="#44622D"/><path d="m270.44 152.45 6.93 7.18-29.12 5.78-18.51 2.41-17.47-8.17-5.03-22.94 13.28-.77 49.92 16.51z" fill="#2B2B2B" style="opacity:.10000000149011612"/><path d="m228.94 111.8-9.37.82-.26 36.86 4.65 3.54 3.61-23.74 1.37-17.48z" fill="#C4C4C4"/><path d="m255.07 115.81 3.94-6.57-5.91-2.61-33.53 5.99 5.15 3.14 30.35.05z" fill="#ECECEB"/><path d="m224.72 115.76-.76 37.26 34.01-6.92 1.04-36.86-34.29 6.52z" fill="#9CA0A1"/><path d="m235.41 116.93-9.37.83-.27 36.86 4.65 3.54 3.61-23.74 1.38-17.49z" fill="#C4C4C4"/><path d="m261.53 120.95 3.94-6.57-5.9-2.61-33.53 5.99 5.14 3.13 30.35.06z" fill="#ECECEB"/><path d="m231.18 120.89-.76 37.27 34.02-6.92 1.03-36.86-34.29 6.51z" fill="#9CA0A1"/><path d="m242.44 121.31-9.37.82-.27 36.86 4.66 3.54 3.61-23.74 1.37-17.48z" fill="#C4C4C4"/><path d="m268.56 125.32 3.94-6.57-5.9-2.61-33.53 5.99 5.15 3.14 30.34.05z" fill="#ECECEB"/><path d="m238.22 125.27-.76 37.26 34.01-6.92 1.03-36.86-34.28 6.52z" fill="#9CA0A1"/><path d="m247.84 165.49 29.53-5.86.39-29.02-30.42 5.13.5 29.75z" fill="#D9E256"/><path d="m56.4 154.47 26.53-5.2 42.57 24.59 8.89-1.38 1.64 3.27-15.4 4.31-4.46-4.89 8.81-1.25q-3.9-.81-22.53-6.44l-44-4.06-2.05-8.95z" fill-rule="evenodd" fill="#3F8F6F"/><path d="m156.26 120.16-28.08 3.56-1.7-24 11.92-6.25 6.53 10.69 13.7 12.56" fill="#738D57"/><path d="m85.18 144.26.84-29-8.57-5.1 26.61-3.42 17.32 10.49 6.8 6.49-6.3 15.63-36.7 4.91z" fill="#5A753D"/><path d="m126.75 145.67-37.25 5.25-4.32-6.66 43-20.54 2.17 12.18-3.6 9.77z" fill="#738D57"/><path d="m160.6 117.95 7.4 22.97-41.25 4.75 1.43-21.95 32.42-5.77z" fill="#5A753D"/><path d="m114.99 111.49-4.98 4.74 18.17 7.49-.74-15.73-12.45 3.5z" fill="#99C26C"/><path d="m123.22 159.22 6.43.52 8.33 8.09-1.97 7.91-8.25 1.22-6.94.47-14.87-10.8 17.27-7.41z" fill="#4F5353"/><path d="m125.52 159.4 4.13.34 8.33 8.09-1.16 4.7-13.06-8.2 1.76-4.93z" fill="#8F8F8F"/><path d="m137.25 170.75-1.24 4.99-10.39-6.49.97-6.98 10.66 8.48z" fill="#6F7273"/><path d="m116.63 156.07 4.03-6.88 8.99 10.55-4.03 9.51-3.82-.41-5.17-12.77z" fill="#C2987A"/><path d="m101.73 158.3 6.67-4.04 12.26-5.07 1.14 19.65-15.85-2.21-4.22-8.33z" fill="#DFBDA5"/><path d="m70.14 145.4-3.95 12.09 39.76 9.14 2.45-12.37-23.22-10-15.04 1.14z" fill="#99C26C"/><path d="m86.78 116.37-1.6 27.89-18.99 13.23 3.27-51.91 17.32 10.79z" fill="#738D57"/><path d="m79.75 107.68 7.03 8.69-18.27 4.33.95-15.12 10.29 2.1z" fill="#54B08B"/><path d="m83.87 90.51-3.65 3.58-10.72 11.49 17.32 10.79 35 .31 14.39-21.91-.54-10.84q-14.6-.51-13.93-.14.67.37-37.87 6.72z" fill-rule="evenodd" fill="#74C7A5"/><path d="m136.03 85.33 7.53-.77 29.13 34.24-8.88 7.66-22.97-21.04-4.72-10.65-.09-9.44z" fill="#99C26C"/><path d="m125.07 79.2-9.1 16.46-20.8-.65-18.4-36.23 6.51-6.1 4.99-13.95 35.42-16.93 4.45 4.56 15.49 45.42-18.56 7.42z" fill="#DFBDA5"/><path d="m139.14 78.08 4.49-6.3-7.52-4.12-9.94 3.05 4.22 6.37 8.75 1zM78.85 62.87l16.97 32.79 20.14 5.78 9.11-22.24-16.59 6.03-16.59-42.6-3.62-3.9-5.26 13.48-4.16 10.66z" fill="#C2987A"/><path d="m88.27 38.73 46.2-21.58-12.34-15.16-9.7-1.99-47.68 22.17-5.48 39.64 19.58 1.06 4.16-10.66 5.26-13.48z" fill="#CFCFCD"/><path d="m130.15 19.17 13.24 15.28-5.22 21.31-10.03-29.4-4.19-4.3 1.01-4.22 5.19 1.33z" fill="#2B2B2B"/><path d="m85.25 75.46 3.23-4.08-.04 10.38-3.19-6.3zM118.11 96.19l6.96-16.99-21.11 7.69 14.15 9.3z" fill="#8B6651"/><path d="m128.14 26.36.82-2.95 1.19-4.24 13.24 15.28-15.25-8.09z" fill="#8F8F8F"/><path d="m136.07 30.56-.18 18.51 2.28 6.69 2.64-3.42.24-8.32 2.34-9.57-7.32-3.89z" fill="#4F5353"/><path d="m85.25 75.46 5.9-7.36-8.09-16.02-4.21 10.79 6.4 12.59z" fill="#C2987A"/><path d="m81.37 61.64 2.15-4.8 3.43 7.36-5.58-2.56zM100.09 33.2l25.83-9.12-1.97-2.02-23.86 11.14z" fill="#8B6651"/><path d="m59.27 61.81 20.95 32.28 15.34 1.06-16.71-32.28-6.69-9.83-12.89 8.77z" fill="#2B2B2B"/><path d="m59.27 61.81 15.94 8.38 10.04 5.27-5.03 18.63-20.95-32.28z" fill="#6F7273"/><path d="m98.56 69.5-12.5-25.13 2.21-5.64-.5-13.87-23.02-2.69-5.48 39.64 19.58 1.06 4.16-10.66 10.33 20.16 5.22-2.87zM80.22 94.09 65.9 87.3l.95-13.81 13.37 20.6z" fill="#474748"/><path d="m141.05 44.02 2.9 8.93-3.27 10.17-2.51-7.36 1.66-6.79 1.22-4.95zM122.13 1.99l-19.27 14.06-38.11 6.12L112.43 0l9.7 1.99z" fill="#8F8F8F"/><path d="m122.13 1.99-10 20.04-23.86 16.7-23.52-16.56 57.38-20.18z" fill="#6F7273"/><path d="M122.13 1.99 109.49 15.7 88.27 38.73l46.2-21.58-12.34-15.16z" fill="#8F8F8F"/><path d="m143.63 71.78-.07 12.78-7.44 10.21-5.73-17.69 13.24-5.3z" fill="#DFBDA5"/><path d="m127.44 107.99-11.48-6.55-5.08 15.27 12.8 1.2 3.76-9.92z" fill="#D9E256"/><path d="m131.73 126.84-1.43 3.12 1.67 2.13 1.71-2.63-1.95-2.62z" fill="#B8C744"/><path d="m116.97 67.02 14.04-9.16.73 2.2-14.05 9.04-.72-2.08zM119.14 58.45l6.03-3.15-.96 3.9-5.07-.75z" fill="#8B6651"/><path d="m99.72 45.51 3.54-5.42 7.83-.09 4.87-1.88 4.5-5.98 2.86.47-.62 6.63-1.5 9.21 3.97 6.85-6.03 3.15-3.25-7.34-8.81-4.47-7.36-1.13z" fill="#C2987A"/><circle cx="106.79" cy="46.91" fill="#474748" r="2.56"/><circle cx="122.57" cy="39.19" fill="#474748" r="2.56"/><path d="m99.72 45.51-3.24-1.32 5.61-6.26 5.83-.07-.15 2.14-4.51.09-3.54 5.42zM115.96 38.12l-1.23-3.1 4.32-5.03 5.31 1.48-1.04 1.14-2.86-.47-4.5 5.98z" fill="#474748"/><path d="M119.14 58.45 111.09 40l4.87-1.88 9.21 17.18-6.03 3.15z" fill="#E9CBB7"/><path d="m112.57 180.3.21 1.61-39.28 6.79-23.09-12q17.9-5.77 18.08-6.24.18-.47 44.08 9.84z" fill-rule="evenodd" fill="#2B2B2B" style="opacity:.10000000149011612"/><path d="M112.14 171.43 73.43 180l.04 8.7 39.1-8.4-.43-8.87z" fill="#B8C744"/><path d="m73.43 180-.16-7.02-12.1-4.43-.08 6.61 12.38 13.54-.04-8.7z" fill="#C4C4C4"/><path d="m112.14 171.43-15.04-8.92-35.93 6.04L73.43 180l38.71-8.57z" fill="#E6E97B"/><path d="m109.76 162.03-34.25 8.14-.15 8.18 34.52-8.19-.12-8.13z" fill="#B8C744"/><path d="m75.51 170.17-.96-5.81L63 159.71l-.36 7.07 12.72 11.57.15-8.18z" fill="#C4C4C4"/><path d="m109.76 162.03-13.94-7.83L63 159.71l12.51 10.46 34.25-8.14z" fill="#E6E97B"/><path d="M233.71 169.9 193 176l-22.72-13.15-29.07 3-14.71-9.9-5.84-6.78-2.57 1.11-4.09-2.76 3.6-.57 94.08 4.78q.06.63 22 18.15l.03.02z" fill-rule="evenodd" fill="#2B2B2B" style="opacity:.10000000149011612"/><path d="m145.15 151.74-5.47 8.28 1.65 3.1L219 148.17l.5-2-74.35 5.57z" fill="#6F7273"/><path d="m129.85 146.12-12.44-1.88.19 2.73 23.73 16.15.47-3.25-11.95-13.75z" fill="#4F5353"/><path d="m187.59 168.04 7.45 7.06 38.67-5.19.04-4.94-46.16 3.07z" fill="#6F7273"/><path d="m183.22 161.61-8.21-.37-.03 1.92 20.06 11.94.44-4.13-12.26-9.36z" fill="#4F5353"/><path d="M141.8 159.87q.75.11 77.7-13.7l-21.5-13-80.59 11.07 24.39 15.63z" fill-rule="evenodd" fill="#A3A3A3"/><path d="m125.77 145.62 3.84 2.56 10.41-1.62-3.64-2.4-10.61 1.46zm15.8.7-3.56-2.39 9.19-1.26 3.41 2.25-9 1.4h-.04zm10.59-1.64 8.33-1.3-3.19-2.1-8.46 1.17 3.32 2.23zm9.87-1.54-3.09-2.08 8.22-1.14 1.17.78c-.75.21-6 2.31-6.3 2.44zm7.88-2.69 8.49-1.36-.9-.59-8.71 1.2 1.12.75zm10.06-1.6c2.67-.43 5.56-.88 8.39-1.31l-.66-.44-8.57 1.18.84.57zm10-1.56c3-.45 5.85-.87 8.23-1.21l-.53-.35-8.32 1.15.62.41zm9.79-1.42 1.29-.17-.73-.33-1.08.15.52.35zm-68.84 13.17 10.27-1.73 4.67 3.09-10.47 1.62-4.47-3v.02zm16.4 1.13 9.12-1.42-4.83-3.19-8.92 1.5 4.63 3.11zm10.59-1.65-4.79-3.22 8.22-1.38 5 3.28-8.4 1.32h-.03zm9.86-1.55 8.16-1.28-5.1-3.37-8 1.34 4.92 3.31h.02zm9.62-1.51-5.05-3.39 8.44-1.42 5.22 3.44-8.61 1.37zm10.08-1.6-5.17-3.47 8.31-1.39 5.32 3.51-8.46 1.35zm9.91-1.59-5.26-3.53 8.06-1.35 5.38 3.55-8.18 1.33zm9.58-1.56 3.36-.57-.08-.25-6.74-3.06-1.86.31 5.31 3.57h.01zm-70.22 12.21 5.73 3.84 10.48-1.68-5.9-3.9c-4.35.71-7.93 1.32-10.31 1.74zm17.56 1.94-5.83-3.92 9.05-1.48 5.95 3.93-9.17 1.47zm10.49-1.69 8.47-1.36-6-3.94-8.37 1.35 5.87 3.95h.03zm9.83-1.58-5.89-3.95 8.13-1.31 6 3.94-8.22 1.32h-.02zm9.58-1.54 8.69-1.39-6-3.94-8.61 1.37 5.89 4 .03-.04zm10.05-1.61 8.56-1.37-6-3.94-8.47 1.35 5.88 4 .03-.04zm9.92-1.59 8-1.28-.11-.34-5.56-3.64-8.23 1.31 5.88 4 .02-.05zm7.37-3.05-3.62-2.43 2.64-.42.98 2.85z" fill-rule="evenodd" fill="#DDDDDC"/><path d="m161.71 111.35-16.58-1.15-4.29-4.78 78.42-11.78 9.4 2.55-66.95 15.16z" fill="#9CA0A1"/><path d="m174.83 161.27 20.65 9.7 38.27-6-21.36-9.83-37.56 6.13z" fill="#8F8F8F"/><path d="m199.77 149.71-.65.79-5.6 11.11 2.62 1.45 13.68-11.51-10.05-1.84z" fill="#A3A3A3"/><path d="m204.86 144.94-3.11 5.79-5.61 12.33 17.11-2.61 4.96-11.8-13.35-3.71zM154.24 112.42l-7.15-4.22-6.25-2.78 9.44 43.74 3.84 1.89.12-38.63z" fill="#4F5353"/><path d="m147.09 108.2 7.03 42.85 74.12-12.22.42-42.64-81.57 12.01z" fill="#6F7273"/><path d="m198.06 130.91-8.23-2.46.08 4.75 9.21 17.3 2.63.23q2.43-6.11 2.15-7-.28-.89-5.84-12.82z" fill-rule="evenodd" fill="#4F5353"/><path d="m204.03 125.92 14.18 22.73-16.46 2.08-11.92-22.28 14.2-2.53z" fill="#8F8F8F"/></g></svg>